<svg version="1.1" id="Layer_1" xmlns="http://www.w3.org/2000/svg" xmlns:xlink="http://www.w3.org/1999/xlink" x="0px" y="0px"
	 width="100%" viewBox="0 0 286 162" enable-background="new 0 0 286 162" xml:space="preserve">
<path fill="#CCD2DE" opacity="1.000000" stroke="none" 
	d="
M286.000000,163.000000 
	C191.056793,163.000000 96.113602,163.000000 1.085200,163.000000 
	C1.085200,109.089203 1.085200,55.178234 1.085200,1.000000 
	C95.687393,1.000000 190.375046,1.000000 285.521759,1.468579 
	C285.987213,55.624771 285.993591,109.312386 286.000000,163.000000 
M52.876297,92.430634 
	C60.204868,113.737129 75.732719,127.124290 95.887283,137.460312 
	C95.887283,132.256760 95.887283,128.018280 95.887283,123.555595 
	C97.431374,123.364670 98.550415,123.191673 99.675957,123.092194 
	C125.493713,120.810257 144.141464,95.228386 138.500610,69.821579 
	C132.972397,44.922131 108.971977,29.855289 84.406540,35.862736 
	C59.889336,41.858387 45.970058,66.306679 52.876297,92.430634 
M234.984299,64.682541 
	C226.193024,42.617744 205.244614,30.614950 183.875778,35.398941 
	C163.198334,40.028145 148.465317,58.027477 148.497498,78.620651 
	C148.531158,100.158035 163.036972,118.009521 184.216217,122.498192 
	C186.749054,123.034996 189.345657,123.270905 192.429733,123.721886 
	C192.429733,128.272537 192.429733,132.460831 192.429733,137.181046 
	C205.445847,130.901840 216.200302,122.954636 224.559036,112.104721 
	C235.227936,98.256111 240.471237,83.020866 234.984299,64.682541 
z"/>
<path fill="#323C4D" opacity="1.000000" stroke="none" 
	d="
M286.500000,163.000000 
	C285.993591,109.312386 285.987213,55.624771 285.990417,1.468579 
	C286.333344,2.333333 286.956879,3.666396 286.958130,5.000039 
	C287.007324,57.666660 287.000000,110.333336 286.500000,163.000000 
z"/>
<path fill="#0936C1" opacity="1.000000" stroke="none" 
	d="
M52.760403,92.040649 
	C45.970058,66.306679 59.889336,41.858387 84.406540,35.862736 
	C108.971977,29.855289 132.972397,44.922131 138.500610,69.821579 
	C144.141464,95.228386 125.493713,120.810257 99.675957,123.092194 
	C98.550415,123.191673 97.431374,123.364670 95.887283,123.555595 
	C95.887283,128.018280 95.887283,132.256760 95.887283,137.460312 
	C75.732719,127.124290 60.204868,113.737129 52.760403,92.040649 
M94.380798,92.328972 
	C94.380798,92.328972 94.412468,92.121986 94.633720,91.848953 
	C94.561737,91.524384 94.489746,91.199821 94.360291,90.155846 
	C94.267883,89.440544 94.175476,88.725235 94.561287,87.798172 
	C95.012985,87.547211 95.464684,87.296249 96.174194,87.675323 
	C98.396202,89.495995 100.618210,91.316666 103.264854,93.577858 
	C104.016647,93.327835 104.768440,93.077812 105.674103,91.989006 
	C105.598022,89.718399 105.521950,87.447792 105.709221,84.352921 
	C105.657005,82.628151 105.604790,80.903389 105.665924,78.489487 
	C105.594414,78.267937 105.522896,78.046394 105.448540,77.326904 
	C105.448433,76.994125 105.420273,76.663734 105.863106,75.253357 
	C105.978020,74.873039 106.092934,74.492729 106.652412,74.730408 
	C108.113823,79.462997 111.073982,82.206261 116.711235,82.254051 
	C116.711235,75.047295 116.837379,68.102585 116.578674,61.172245 
	C116.538704,60.101559 114.764893,58.237633 113.739059,58.199776 
	C106.632782,57.937496 99.512238,58.061516 92.150917,58.061516 
	C92.521255,63.528149 95.044022,66.733208 99.554771,68.698242 
	C98.934761,68.999504 98.314743,69.300766 96.857445,69.466492 
	C95.172623,69.545273 93.487793,69.624054 90.941284,69.485992 
	C87.740051,69.485992 84.538826,69.485992 81.092430,69.485992 
	C81.459793,74.409340 83.847328,77.363014 87.623810,79.719757 
	C87.302620,80.044815 86.981430,80.369881 86.076050,80.602333 
	C85.303528,80.674423 84.531006,80.746513 83.432693,80.788872 
	C83.432693,80.788872 83.125565,80.901527 82.348076,80.763268 
	C81.569351,80.823204 80.790619,80.883133 79.542458,80.730583 
	C79.378334,80.679924 79.214211,80.629265 78.709114,80.233047 
	C78.129311,80.345268 77.549515,80.457497 76.087967,80.628326 
	C74.163170,80.628326 72.238373,80.628326 69.787453,80.628326 
	C70.699203,85.493683 72.388283,88.860939 77.584679,90.533485 
	C79.626709,91.236244 81.668747,91.939011 83.672066,92.628448 
	C84.096161,94.570953 84.289291,96.754112 85.058083,98.711128 
	C86.747604,103.011917 90.537560,104.992485 94.900475,103.576569 
	C94.786880,102.712021 94.673294,101.847473 94.434410,100.232765 
	C94.333374,99.482910 94.232338,98.733063 94.417557,97.543480 
	C94.457497,97.373207 94.497429,97.202934 94.827309,96.649406 
	C94.689911,96.069290 94.552513,95.489182 94.230156,94.867760 
	C94.230156,94.867760 94.064682,94.960129 94.277863,94.211746 
	C94.263206,93.694115 94.248550,93.176491 94.295242,92.607735 
	C94.295242,92.607735 94.313690,92.527321 94.380798,92.328972 
z"/>
<path fill="#11AC8B" opacity="1.000000" stroke="none" 
	d="
M235.068039,65.074402 
	C240.471237,83.020866 235.227936,98.256111 224.559036,112.104721 
	C216.200302,122.954636 205.445847,130.901840 192.429733,137.181046 
	C192.429733,132.460831 192.429733,128.272537 192.429733,123.721886 
	C189.345657,123.270905 186.749054,123.034996 184.216217,122.498192 
	C163.036972,118.009521 148.531158,100.158035 148.497498,78.620651 
	C148.465317,58.027477 163.198334,40.028145 183.875778,35.398941 
	C205.244614,30.614950 226.193024,42.617744 235.068039,65.074402 
M175.145142,63.625782 
	C168.233688,68.194923 166.626938,73.888039 169.958664,81.172508 
	C170.666534,82.720169 170.937546,84.593018 170.939453,86.316566 
	C170.947906,93.925583 175.703369,99.115807 183.345520,99.944633 
	C185.199615,100.145721 187.124939,100.842934 188.752731,101.774620 
	C195.161514,105.442757 201.987549,103.927567 206.335587,97.888054 
	C207.423645,96.376747 208.931213,94.978249 210.550476,94.071938 
	C216.937820,90.496849 219.251877,83.749680 216.387512,77.060822 
	C215.579391,75.173691 215.092163,73.000443 215.070511,70.951950 
	C214.992798,63.601566 210.274261,58.334846 203.013412,57.563431 
	C201.161316,57.366661 199.176208,56.832008 197.603348,55.875305 
	C191.188934,51.973694 184.007751,53.451782 179.597122,59.641075 
	C178.601227,61.038540 177.054535,62.043484 175.145142,63.625782 
z"/>
<path fill="#F3F5FC" opacity="1.000000" stroke="none" 
	d="
M99.914795,68.112328 
	C95.044022,66.733208 92.521255,63.528149 92.150917,58.061516 
	C99.512238,58.061516 106.632782,57.937496 113.739059,58.199776 
	C114.764893,58.237633 116.538704,60.101559 116.578674,61.172245 
	C116.837379,68.102585 116.711235,75.047295 116.711235,82.254051 
	C111.073982,82.206261 108.113823,79.462997 106.519020,74.040894 
	C106.385628,71.695412 106.385628,70.039444 106.385628,68.112328 
	C103.706284,68.112328 101.810539,68.112328 99.914795,68.112328 
z"/>
<path fill="#F0F2FB" opacity="1.000000" stroke="none" 
	d="
M87.932945,79.111649 
	C83.847328,77.363014 81.459793,74.409340 81.092430,69.485992 
	C84.538826,69.485992 87.740051,69.485992 91.412086,69.911819 
	C94.372253,73.159416 96.901718,75.947113 99.337929,78.814056 
	C101.192886,80.996964 102.929451,83.280479 104.473976,85.613602 
	C102.706665,84.527626 101.282829,83.175468 99.628426,82.224358 
	C98.427132,81.533730 96.920776,81.373726 95.171616,80.832916 
	C92.506180,80.163033 90.219559,79.637344 87.932945,79.111649 
z"/>
<path fill="#EEF2FB" opacity="1.000000" stroke="none" 
	d="
M94.568031,104.013123 
	C90.537560,104.992485 86.747604,103.011917 85.058083,98.711128 
	C84.289291,96.754112 84.096161,94.570953 83.672066,92.628448 
	C81.668747,91.939011 79.626709,91.236244 77.704941,90.245872 
	C79.549934,89.639145 81.274658,89.320030 83.339172,88.998154 
	C84.132172,88.981247 84.585403,88.967094 85.171188,89.153824 
	C85.510040,89.606674 85.757202,89.808632 86.079918,90.306366 
	C88.786842,93.095825 91.459076,95.539520 94.131302,97.983208 
	C94.232338,98.733063 94.333374,99.482910 94.359314,100.974792 
	C94.378822,102.482246 94.473427,103.247688 94.568031,104.013123 
z"/>
<path fill="#B2C1EC" opacity="1.000000" stroke="none" 
	d="
M104.718681,85.519234 
	C102.929451,83.280479 101.192886,80.996964 99.337929,78.814056 
	C96.901718,75.947113 94.372253,73.159416 91.842926,70.020233 
	C93.487793,69.624054 95.172623,69.545273 97.409988,69.816711 
	C100.429710,72.223198 102.896881,74.279472 105.364052,76.335747 
	C105.420273,76.663734 105.448433,76.994125 105.335350,77.732567 
	C105.332298,78.485023 105.442436,78.831825 105.552574,79.178619 
	C105.604790,80.903389 105.657005,82.628151 105.415329,84.892166 
	C105.121429,85.431419 104.718681,85.519234 104.718681,85.519234 
z"/>
<path fill="#FAFBFE" opacity="1.000000" stroke="none" 
	d="
M104.473976,85.613602 
	C104.718681,85.519234 105.121429,85.431419 105.283653,85.304306 
	C105.521950,87.447792 105.598022,89.718399 105.259186,92.422562 
	C104.176254,92.949860 103.508240,93.043602 102.840218,93.137344 
	C100.618210,91.316666 98.396202,89.495995 96.069832,86.976753 
	C95.827126,84.511162 95.688782,82.744148 95.550446,80.977127 
	C96.920776,81.373726 98.427132,81.533730 99.628426,82.224358 
	C101.282829,83.175468 102.706665,84.527626 104.473976,85.613602 
z"/>
<path fill="#FBFCFE" opacity="1.000000" stroke="none" 
	d="
M82.999390,89.000916 
	C81.274658,89.320030 79.549934,89.639145 77.427322,89.975113 
	C72.388283,88.860939 70.699203,85.493683 69.787453,80.628326 
	C72.238373,80.628326 74.163170,80.628326 76.750656,80.795250 
	C77.595184,81.039032 77.777023,81.115891 78.002762,81.496567 
	C78.701569,82.529663 79.356468,83.258957 80.139885,84.190521 
	C80.472298,84.646004 80.719849,84.844879 81.149879,85.283600 
	C81.858932,86.718826 82.429161,87.859871 82.999390,89.000916 
z"/>
<path fill="#BDCBEF" opacity="1.000000" stroke="none" 
	d="
M81.011047,84.989418 
	C80.719849,84.844879 80.472298,84.646004 80.141502,83.810074 
	C80.013702,82.465919 80.012794,81.704498 80.011894,80.943069 
	C80.790619,80.883133 81.569351,80.823204 82.755829,81.086563 
	C83.438339,81.578224 83.713104,81.746590 84.136200,82.217758 
	C87.236198,85.733742 90.187859,88.946930 93.242996,92.372528 
	C93.346466,92.584938 93.776321,92.786819 93.776321,92.786819 
	C93.776321,92.786819 94.233887,92.658859 94.233887,92.658859 
	C94.248550,93.176491 94.263206,93.694115 93.825020,94.549332 
	C90.929855,93.244812 88.487541,91.602699 86.045219,89.960594 
	C85.757202,89.808632 85.510040,89.606674 85.110565,88.805466 
	C83.615273,87.167274 82.313164,86.078346 81.011047,84.989418 
z"/>
<path fill="#95ABE6" opacity="1.000000" stroke="none" 
	d="
M93.139519,92.160110 
	C90.187859,88.946930 87.236198,85.733742 84.102318,81.938850 
	C83.866234,81.177635 83.812363,80.998123 83.758484,80.818604 
	C84.531006,80.746513 85.303528,80.674423 86.552643,80.925003 
	C90.982368,81.830841 92.732803,84.711670 94.083061,88.009933 
	C94.175476,88.725235 94.267883,89.440544 94.314514,90.827080 
	C94.316650,91.706207 94.364563,91.914093 94.412468,92.121986 
	C94.412468,92.121986 94.380798,92.328972 94.068153,92.282791 
	C93.550171,92.211113 93.344841,92.185616 93.139519,92.160110 
z"/>
<path fill="#627DD6" opacity="1.000000" stroke="none" 
	d="
M105.613579,75.794556 
	C102.896881,74.279472 100.429710,72.223198 97.828629,69.884476 
	C98.314743,69.300766 98.934761,68.999504 99.734787,68.405289 
	C101.810539,68.112328 103.706284,68.112328 106.385628,68.112328 
	C106.385628,70.039444 106.385628,71.695412 106.296738,73.731903 
	C106.092934,74.492729 105.978020,74.873039 105.613579,75.794556 
z"/>
<path fill="#4B65CC" opacity="1.000000" stroke="none" 
	d="
M94.322174,87.904053 
	C92.732803,84.711670 90.982368,81.830841 86.844742,80.971313 
	C86.981430,80.369881 87.302620,80.044815 87.778381,79.415703 
	C90.219559,79.637344 92.506180,80.163033 95.171616,80.832924 
	C95.688782,82.744148 95.827126,84.511162 95.940926,86.661728 
	C95.464684,87.296249 95.012985,87.547211 94.322174,87.904053 
z"/>
<path fill="#D7DEF5" opacity="1.000000" stroke="none" 
	d="
M86.079918,90.306366 
	C88.487541,91.602699 90.929855,93.244812 93.718430,94.923523 
	C94.064682,94.960129 94.230156,94.867760 94.208229,95.242409 
	C94.303322,96.088928 94.420341,96.560791 94.537369,97.032661 
	C94.497429,97.202934 94.457497,97.373207 94.274429,97.763344 
	C91.459076,95.539520 88.786842,93.095825 86.079918,90.306366 
z"/>
<path fill="#D7DEF5" opacity="1.000000" stroke="none" 
	d="
M79.777176,80.836823 
	C80.012794,81.704498 80.013702,82.465919 80.012985,83.607796 
	C79.356468,83.258957 78.701569,82.529663 78.279800,81.350533 
	C78.691994,80.793327 78.871040,80.685966 79.050095,80.578613 
	C79.214211,80.629265 79.378334,80.679924 79.777176,80.836823 
z"/>
<path fill="#B2C1EC" opacity="1.000000" stroke="none" 
	d="
M103.052536,93.357605 
	C103.508240,93.043602 104.176254,92.949860 105.182259,92.841949 
	C104.768440,93.077812 104.016647,93.327835 103.052536,93.357605 
z"/>
<path fill="#4B65CC" opacity="1.000000" stroke="none" 
	d="
M94.734253,103.794846 
	C94.473427,103.247688 94.378822,102.482246 94.421959,101.349869 
	C94.673294,101.847473 94.786880,102.712021 94.734253,103.794846 
z"/>
<path fill="#4C67CD" opacity="1.000000" stroke="none" 
	d="
M78.879608,80.405830 
	C78.871040,80.685966 78.691994,80.793327 78.235901,81.046722 
	C77.777023,81.115891 77.595184,81.039032 77.191528,80.765945 
	C77.549515,80.457497 78.129311,80.345268 78.879608,80.405830 
z"/>
<path fill="#4B65CC" opacity="1.000000" stroke="none" 
	d="
M94.682343,96.841034 
	C94.420341,96.560791 94.303322,96.088928 94.300705,95.263062 
	C94.552513,95.489182 94.689911,96.069290 94.682343,96.841034 
z"/>
<path fill="#4B65CC" opacity="1.000000" stroke="none" 
	d="
M83.595589,80.803741 
	C83.812363,80.998123 83.866234,81.177635 83.953979,81.636047 
	C83.713104,81.746590 83.438339,81.578224 83.144569,81.155701 
	C83.125565,80.901527 83.432693,80.788872 83.595589,80.803741 
z"/>
<path fill="#627DD6" opacity="1.000000" stroke="none" 
	d="
M105.609253,78.834053 
	C105.442436,78.831825 105.332298,78.485023 105.336777,77.981537 
	C105.522896,78.046394 105.594414,78.267937 105.609253,78.834053 
z"/>
<path fill="#4B65CC" opacity="1.000000" stroke="none" 
	d="
M94.523094,91.985474 
	C94.364563,91.914093 94.316650,91.706207 94.343246,91.186783 
	C94.489746,91.199821 94.561737,91.524384 94.523094,91.985474 
z"/>
<path fill="#4B65CC" opacity="1.000000" stroke="none" 
	d="
M93.242996,92.372528 
	C93.344841,92.185616 93.550171,92.211113 94.034599,92.381973 
	C94.313690,92.527321 94.295242,92.607735 94.264565,92.633301 
	C94.233887,92.658859 93.776321,92.786819 93.776321,92.786819 
	C93.776321,92.786819 93.346466,92.584938 93.242996,92.372528 
z"/>
<path fill="#F0F9F7" opacity="1.000000" stroke="none" 
	d="
M175.453278,63.427452 
	C177.054535,62.043484 178.601227,61.038540 179.597122,59.641075 
	C184.007751,53.451782 191.188934,51.973694 197.603348,55.875305 
	C199.176208,56.832008 201.161316,57.366661 203.013412,57.563431 
	C210.274261,58.334846 214.992798,63.601566 215.070511,70.951950 
	C215.092163,73.000443 215.579391,75.173691 216.387512,77.060822 
	C219.251877,83.749680 216.937820,90.496849 210.550476,94.071938 
	C208.931213,94.978249 207.423645,96.376747 206.335587,97.888054 
	C201.987549,103.927567 195.161514,105.442757 188.752731,101.774620 
	C187.124939,100.842934 185.199615,100.145721 183.345520,99.944633 
	C175.703369,99.115807 170.947906,93.925583 170.939453,86.316566 
	C170.937546,84.593018 170.666534,82.720169 169.958664,81.172508 
	C166.626938,73.888039 168.233688,68.194923 175.453278,63.427452 
M211.616577,76.068398 
	C206.734039,73.969856 203.180801,67.424156 195.055634,71.701324 
	C205.191284,74.869476 211.037354,80.094963 207.792084,91.120781 
	C214.590652,87.459679 215.635300,83.029221 211.616577,76.068398 
M172.896469,79.163284 
	C178.297318,85.989662 185.841171,88.983612 189.437103,85.026314 
	C179.966782,82.510483 175.295731,76.793297 178.258453,66.497353 
	C172.158966,69.183319 171.130096,71.628807 172.896469,79.163284 
M198.400406,66.645851 
	C200.232391,66.858093 202.220459,66.692978 203.859818,67.370995 
	C206.321548,68.389122 208.538864,69.998268 211.324051,71.627495 
	C210.813568,62.484711 204.712753,58.797504 197.596603,62.390327 
	C195.225555,63.587418 192.755569,64.743530 190.720108,66.397476 
	C189.289062,67.560280 188.516357,69.533310 187.449677,71.144554 
	C187.874069,71.483788 188.298462,71.823021 188.722870,72.162254 
	C191.723877,70.443420 194.724884,68.724594 198.400406,66.645851 
M181.551712,77.618240 
	C182.559372,78.092720 183.567047,78.567200 185.605957,79.527267 
	C183.067352,69.404076 185.855087,62.399414 196.302597,59.510887 
	C188.500397,55.124252 181.652390,58.620247 181.095596,66.341011 
	C180.844925,69.817039 181.115799,73.330688 181.551712,77.618240 
M203.534409,79.161781 
	C202.792877,78.854263 202.051346,78.546745 200.697250,77.985184 
	C200.697250,82.735382 202.050354,87.723366 200.308945,91.129036 
	C198.635544,94.401665 193.757645,96.035744 190.077408,98.532578 
	C197.252243,101.614052 203.215378,99.642990 204.366730,93.366402 
	C205.172882,88.971695 204.306335,84.270157 203.534409,79.161781 
M187.457230,90.919189 
	C185.365997,90.472969 183.215134,90.205536 181.199326,89.533173 
	C178.918335,88.772346 176.758545,87.648186 173.674255,86.301308 
	C176.556976,94.593346 179.902786,97.063705 185.505005,96.061882 
	C191.560806,94.978935 197.842728,89.533554 197.658401,85.085304 
	C194.351044,86.962227 191.209427,88.745087 187.457230,90.919189 
M188.097305,80.107071 
	C189.408188,82.954193 191.363892,84.440628 194.641815,83.304474 
	C197.790894,82.212990 198.817001,79.594223 197.711197,77.010826 
	C197.026779,75.411888 194.375717,73.523491 192.808136,73.687126 
	C190.159943,73.963577 187.312851,75.477142 188.097305,80.107071 
z"/>
<path fill="#D7DEF5" opacity="1.000000" stroke="none" 
	d="
M81.149879,85.283600 
	C82.313164,86.078346 83.615273,87.167274 84.978004,88.604576 
	C84.585403,88.967094 84.132172,88.981247 83.339172,88.998154 
	C82.429161,87.859871 81.858932,86.718826 81.149879,85.283600 
z"/>
<path fill="#20B090" opacity="1.000000" stroke="none" 
	d="
M211.862503,76.358810 
	C215.635300,83.029221 214.590652,87.459679 207.792084,91.120781 
	C211.037354,80.094963 205.191284,74.869476 195.055634,71.701324 
	C203.180801,67.424156 206.734039,73.969856 211.862503,76.358810 
z"/>
<path fill="#1DAF8F" opacity="1.000000" stroke="none" 
	d="
M172.708649,78.812111 
	C171.130096,71.628807 172.158966,69.183319 178.258453,66.497353 
	C175.295731,76.793297 179.966782,82.510483 189.437103,85.026314 
	C185.841171,88.983612 178.297318,85.989662 172.708649,78.812111 
z"/>
<path fill="#1DAF8F" opacity="1.000000" stroke="none" 
	d="
M198.063156,66.825806 
	C194.724884,68.724594 191.723877,70.443420 188.722870,72.162254 
	C188.298462,71.823021 187.874069,71.483788 187.449677,71.144554 
	C188.516357,69.533310 189.289062,67.560280 190.720108,66.397476 
	C192.755569,64.743530 195.225555,63.587418 197.596603,62.390327 
	C204.712753,58.797504 210.813568,62.484711 211.324051,71.627495 
	C208.538864,69.998268 206.321548,68.389122 203.859818,67.370995 
	C202.220459,66.692978 200.232391,66.858093 198.063156,66.825806 
z"/>
<path fill="#16AD8C" opacity="1.000000" stroke="none" 
	d="
M181.350876,77.222748 
	C181.115799,73.330688 180.844925,69.817039 181.095596,66.341011 
	C181.652390,58.620247 188.500397,55.124252 196.302597,59.510887 
	C185.855087,62.399414 183.067352,69.404076 185.605957,79.527267 
	C183.567047,78.567200 182.559372,78.092720 181.350876,77.222748 
z"/>
<path fill="#13AC8B" opacity="1.000000" stroke="none" 
	d="
M203.860626,79.433716 
	C204.306335,84.270157 205.172882,88.971695 204.366730,93.366402 
	C203.215378,99.642990 197.252243,101.614052 190.077408,98.532578 
	C193.757645,96.035744 198.635544,94.401665 200.308945,91.129036 
	C202.050354,87.723366 200.697250,82.735382 200.697250,77.985184 
	C202.051346,78.546745 202.792877,78.854263 203.860626,79.433716 
z"/>
<path fill="#18AD8C" opacity="1.000000" stroke="none" 
	d="
M187.762512,90.723572 
	C191.209427,88.745087 194.351044,86.962227 197.658401,85.085304 
	C197.842728,89.533554 191.560806,94.978935 185.505005,96.061882 
	C179.902786,97.063705 176.556976,94.593346 173.674255,86.301308 
	C176.758545,87.648186 178.918335,88.772346 181.199326,89.533173 
	C183.215134,90.205536 185.365997,90.472969 187.762512,90.723572 
z"/>
<path fill="#18AE8D" opacity="1.000000" stroke="none" 
	d="
M188.088776,79.705643 
	C187.312851,75.477142 190.159943,73.963577 192.808136,73.687126 
	C194.375717,73.523491 197.026779,75.411888 197.711197,77.010826 
	C198.817001,79.594223 197.790894,82.212990 194.641815,83.304474 
	C191.363892,84.440628 189.408188,82.954193 188.088776,79.705643 
z"/>
</svg>